<?xml version="1.0" standalone="no"?>
<!DOCTYPE svg PUBLIC "-//W3C//DTD SVG 20010904//EN"
 "http://www.w3.org/TR/2001/REC-SVG-20010904/DTD/svg10.dtd">
<svg version="1.0" xmlns="http://www.w3.org/2000/svg"
 width="600.000000pt" height="450.000000pt" viewBox="0 0 600.000000 450.000000"
 preserveAspectRatio="xMidYMid meet">
<g transform="translate(0.000000,450.000000) scale(0.100000,-0.100000)"
fill="#000000" stroke="none">
<path d="M2390 3213 c-113 -16 -280 -83 -390 -156 -115 -77 -280 -209 -378
-302 -179 -170 -366 -323 -497 -406 -56 -35 -197 -86 -279 -100 -80 -13 -184
-5 -234 18 -106 50 -154 179 -116 313 14 49 27 72 65 110 89 89 214 126 273
79 27 -22 28 -25 24 -91 -3 -37 -2 -68 1 -68 11 0 59 105 66 143 5 27 2 45
-16 76 -47 84 -158 93 -304 23 -45 -22 -91 -47 -101 -55 -10 -9 -38 -30 -61
-47 -24 -16 -63 -56 -88 -87 -122 -155 -146 -323 -68 -481 59 -119 258 -285
448 -372 50 -23 98 -46 107 -51 48 -25 235 -78 323 -92 270 -43 806 -24 1090
38 39 8 103 22 144 31 40 8 81 19 90 23 9 5 41 17 71 26 30 10 80 29 110 43
30 13 64 28 75 32 62 26 237 163 271 212 11 16 22 28 25 28 4 0 38 -30 75 -68
148 -145 362 -249 629 -306 44 -9 94 -21 110 -26 17 -5 109 -19 205 -31 141
-17 233 -21 470 -21 320 -1 402 7 570 58 137 42 378 151 388 176 2 4 9 8 15 8
19 0 154 110 216 176 100 107 137 204 128 337 -11 170 -131 328 -329 435 -147
80 -272 81 -326 4 -26 -36 -30 -74 -12 -126 12 -38 48 -106 56 -106 2 0 1 29
-3 64 -5 60 -4 66 20 90 76 76 285 -23 336 -159 25 -66 26 -120 6 -198 -30
-115 -107 -162 -260 -161 -179 1 -314 55 -513 206 -140 106 -175 137 -378 327
-88 83 -109 102 -169 146 -22 16 -42 33 -45 36 -9 10 -182 125 -238 158 -29
17 -99 45 -155 62 -95 30 -113 32 -257 32 -137 1 -162 -1 -220 -22 -122 -43
-219 -100 -293 -174 -17 -17 -20 -16 -65 24 -64 56 -166 114 -254 145 -59 20
-97 25 -198 28 -69 3 -141 2 -160 -1z m248 -37 c26 -7 57 -11 70 -10 12 1 22
-3 22 -8 0 -5 4 -6 10 -3 5 3 20 -1 32 -9 12 -9 29 -16 38 -16 8 0 33 -14 54
-30 22 -17 46 -30 53 -30 7 0 13 -4 13 -10 0 -5 7 -10 15 -10 8 0 22 -12 30
-27 9 -16 14 -19 10 -9 -5 16 -3 17 10 6 8 -7 13 -16 10 -20 -2 -4 6 -13 19
-20 25 -13 66 0 66 22 0 7 5 7 14 -1 12 -10 13 -8 9 8 -3 14 -1 21 8 21 8 0
20 9 27 20 7 11 19 20 27 20 8 0 15 5 15 12 0 6 3 8 6 5 4 -4 20 5 36 18 26
22 36 26 63 25 3 0 19 7 35 15 17 9 30 13 30 9 0 -4 6 -2 13 3 6 6 19 10 27
11 8 0 31 3 50 7 54 10 220 11 220 1 0 -4 9 -6 20 -3 11 3 39 1 62 -5 24 -5
51 -11 62 -14 56 -11 176 -63 176 -76 0 -4 7 -5 15 -1 10 3 15 1 13 -8 -2 -7
6 -15 17 -17 11 -2 27 -10 35 -17 8 -7 25 -16 37 -19 11 -4 27 -14 35 -24 11
-14 9 -14 -16 2 -16 10 -25 13 -21 6 4 -7 23 -18 41 -26 19 -8 34 -19 34 -24
0 -5 7 -7 15 -4 11 5 13 2 9 -10 -5 -12 -2 -15 10 -10 9 3 16 1 16 -5 0 -6 7
-11 15 -11 9 0 15 -9 15 -22 0 -16 3 -19 8 -10 7 9 14 8 32 -8 21 -18 22 -23
10 -31 -11 -8 -8 -8 10 -3 23 6 24 6 10 -11 -14 -17 -14 -17 9 -6 15 8 21 9
17 2 -4 -6 -3 -11 2 -11 6 0 37 -27 70 -60 34 -33 66 -60 72 -60 6 0 8 -5 5
-10 -4 -6 -11 -7 -17 -4 -6 4 -8 2 -5 -4 4 -5 16 -8 26 -5 10 3 22 0 25 -6 4
-6 -1 -12 -11 -12 -10 -1 -4 -4 12 -8 20 -4 30 -12 29 -24 -1 -9 3 -14 8 -11
5 3 16 -2 23 -12 8 -11 15 -15 15 -11 0 4 10 -3 23 -16 12 -13 30 -26 40 -30
9 -3 17 -13 17 -21 0 -15 57 -52 73 -48 4 1 6 -3 5 -10 -2 -7 4 -12 12 -13 8
-1 14 -7 12 -15 -2 -8 0 -12 4 -8 4 4 21 -2 38 -14 41 -29 56 -45 50 -51 -3
-2 2 -7 11 -11 11 -4 14 -2 9 6 -4 7 6 2 23 -10 17 -12 33 -18 37 -14 4 4 6 1
4 -7 -2 -9 11 -18 35 -26 21 -6 42 -17 46 -24 5 -7 12 -12 17 -12 20 2 74 -12
74 -19 0 -4 6 -8 13 -7 47 1 77 -4 71 -14 -4 -7 4 -10 22 -8 16 1 37 -2 48 -6
10 -4 46 -3 79 3 33 6 65 9 70 5 6 -3 7 -1 3 5 -6 11 19 18 47 13 4 0 7 3 7 8
0 8 37 24 53 22 4 -1 7 8 7 19 0 11 7 20 16 20 8 0 13 4 10 9 -3 5 1 12 10 15
8 3 12 10 9 16 -3 5 -3 15 1 22 5 8 10 6 15 -8 6 -14 8 -10 7 16 0 19 2 57 6
84 9 72 -8 161 -38 197 -14 16 -23 36 -20 44 4 9 0 15 -9 15 -9 0 -23 10 -32
23 -8 12 -18 21 -20 19 -11 -5 -56 31 -52 42 5 12 1 12 -135 19 -74 4 -85 2
-80 -11 3 -10 1 -13 -6 -8 -7 4 -12 2 -12 -4 0 -6 -5 -8 -11 -4 -7 4 -9 0 -5
-14 4 -11 3 -23 -2 -26 -5 -3 -8 14 -8 39 1 34 4 41 14 33 9 -8 11 -7 6 6 -4
9 -3 16 2 15 5 -1 18 -1 29 0 15 1 17 3 7 10 -10 6 -9 10 8 14 32 8 144 -1
148 -13 2 -5 16 -10 30 -10 22 0 24 -2 12 -11 -12 -9 -11 -10 8 -6 12 3 22 1
22 -5 0 -5 4 -7 9 -4 5 3 12 -1 15 -10 3 -8 10 -12 16 -9 5 3 10 -1 10 -9 0
-9 9 -16 20 -16 11 0 29 -9 39 -19 11 -11 21 -17 24 -15 6 6 67 -64 67 -77 0
-6 5 -7 10 -4 6 3 10 -1 10 -9 0 -9 5 -15 11 -13 7 1 16 -13 21 -31 5 -20 13
-30 20 -26 7 5 9 0 6 -14 -4 -16 -2 -19 10 -15 12 5 14 2 9 -11 -4 -9 0 -27 8
-40 18 -27 26 -188 12 -226 -6 -14 -11 -33 -12 -43 -1 -11 -8 -22 -15 -27 -7
-4 -10 -12 -7 -17 3 -5 -2 -16 -11 -25 -27 -24 -52 -57 -52 -69 0 -5 -4 -7
-10 -4 -5 3 -10 0 -10 -7 -1 -7 -19 -26 -41 -43 -22 -16 -51 -40 -64 -53 -13
-12 -28 -22 -34 -22 -5 0 -11 -3 -13 -7 -2 -5 -16 -19 -33 -33 -16 -14 -24
-17 -17 -8 11 14 10 16 -7 11 -10 -3 -22 -14 -24 -25 -3 -11 -10 -17 -15 -14
-6 3 -12 3 -14 -1 -3 -8 -113 -70 -113 -64 0 4 -59 -23 -65 -29 -10 -12 -120
-41 -130 -35 -6 4 -9 1 -8 -7 2 -7 -6 -13 -17 -13 -11 -1 -26 -4 -32 -8 -19
-12 -145 -37 -155 -31 -4 3 -14 2 -20 -3 -7 -4 -47 -8 -88 -9 -41 -1 -83 -5
-93 -9 -10 -4 -107 -5 -215 -1 -108 4 -240 9 -292 11 -52 1 -135 11 -185 20
-49 10 -102 18 -117 18 -15 0 -25 3 -23 7 2 4 -7 6 -21 4 -14 -1 -43 4 -65 11
-21 8 -39 11 -39 8 0 -4 -5 -2 -11 4 -6 6 -18 9 -27 6 -8 -4 -13 -2 -9 3 3 5
-12 10 -35 10 -22 1 -45 7 -51 13 -6 6 -22 11 -35 11 -14 0 -21 4 -16 11 4 8
-1 9 -16 4 -17 -5 -21 -4 -15 6 6 9 4 11 -8 6 -9 -3 -19 -2 -22 3 -4 6 -12 10
-20 10 -21 0 -157 65 -150 72 3 3 -1 8 -10 12 -9 3 -13 2 -10 -4 3 -6 1 -10
-4 -10 -6 0 -11 6 -11 14 0 7 -13 19 -30 26 -16 7 -27 16 -24 21 3 5 3 9 0 9
-2 0 -13 3 -23 6 -15 5 -15 4 -3 -5 10 -7 11 -11 3 -11 -7 0 -19 12 -27 28 -8
15 -15 23 -16 18 0 -5 -9 -1 -20 9 -11 10 -17 22 -14 26 3 5 -2 6 -10 3 -9 -3
-16 -2 -16 4 0 6 -12 24 -26 41 -30 36 -66 40 -87 11 -8 -11 -17 -17 -22 -12
-4 4 -5 -1 -2 -10 4 -11 2 -18 -6 -18 -7 0 -23 -14 -36 -30 -13 -16 -27 -28
-31 -25 -5 3 -11 1 -15 -5 -3 -5 0 -10 7 -10 10 0 9 -3 -2 -9 -8 -6 -18 -7
-22 -5 -5 3 -7 0 -6 -7 2 -6 -3 -14 -11 -17 -8 -3 -11 0 -7 7 4 6 2 11 -3 11
-11 0 -15 -15 -11 -35 1 -5 -1 -7 -5 -3 -4 4 -32 -10 -64 -31 -57 -38 -110
-64 -127 -60 -20 3 -35 -1 -30 -10 5 -8 -5 -12 -56 -26 -5 -2 -11 -4 -15 -5
-5 -2 -12 -4 -18 -5 -29 -5 -72 -18 -90 -25 -24 -11 -66 -23 -80 -25 -27 -2
-103 -17 -130 -26 -46 -14 -253 -39 -270 -33 -8 4 -15 2 -15 -4 0 -10 -14 -10
-355 -13 -197 -2 -366 4 -415 15 -14 3 -38 7 -55 10 -16 3 -57 14 -89 25 -33
12 -68 21 -78 21 -12 0 -16 4 -12 11 4 8 -1 9 -16 4 -14 -5 -20 -3 -16 3 3 6
-7 13 -25 17 -17 4 -42 13 -57 21 -15 8 -35 14 -44 14 -10 0 -18 4 -18 10 0 5
-18 14 -40 20 -21 6 -43 17 -47 24 -4 8 -17 16 -28 18 -26 4 -44 20 -37 32 3
5 0 6 -6 2 -15 -9 -56 29 -47 43 3 6 -1 11 -10 11 -9 0 -13 4 -10 10 3 6 -1 7
-9 4 -9 -3 -16 -1 -16 5 0 6 -7 8 -16 4 -19 -7 -75 44 -67 63 5 12 -8 19 -29
15 -8 -1 -12 16 -8 34 1 5 -2 7 -6 2 -11 -10 -44 22 -38 38 3 7 -4 19 -15 27
-12 8 -18 18 -14 21 3 4 2 7 -4 7 -19 0 -34 54 -39 144 -4 67 -2 87 6 76 8
-12 9 -9 4 13 -3 15 -2 33 4 40 5 6 15 31 21 55 7 24 18 42 26 42 8 0 12 6 10
13 -6 13 93 125 104 118 3 -2 11 5 16 15 6 11 17 18 26 16 22 -4 19 -68 -4
-103 -29 -43 -41 -129 -28 -200 6 -34 18 -70 27 -80 9 -10 13 -23 9 -28 -3 -6
-1 -11 6 -11 6 0 9 -8 6 -20 -3 -11 -1 -18 3 -15 5 3 10 0 13 -7 2 -7 3 -4 1
6 -2 15 3 13 25 -11 16 -18 42 -33 64 -37 21 -4 36 -10 33 -14 -2 -4 3 -8 12
-8 9 -1 26 -4 37 -8 16 -6 17 -6 5 3 -9 7 -10 11 -3 11 6 0 15 -4 18 -10 3 -5
29 -10 56 -10 31 0 48 4 44 10 -4 6 12 8 42 5 32 -4 41 -2 28 3 -17 8 -15 10
15 16 19 3 42 7 50 8 8 0 20 5 27 10 7 5 16 7 22 4 5 -3 11 -1 13 4 2 6 17 13
33 16 17 3 32 9 33 15 2 5 8 7 13 3 5 -3 9 0 9 6 0 6 5 8 10 5 6 -3 10 -2 10
3 0 5 8 12 17 16 24 8 55 28 74 48 9 10 19 15 23 11 3 -3 6 -1 6 5 0 7 7 12
15 12 8 0 15 6 15 14 0 15 31 30 70 35 6 0 10 5 10 11 0 5 -8 7 -17 4 -10 -3
-1 4 20 16 20 11 37 26 37 32 0 6 2 9 5 6 11 -11 127 97 117 108 -4 4 -2 4 5
0 6 -3 14 -2 18 4 4 6 11 7 17 4 7 -5 9 -1 5 9 -3 10 -2 17 4 17 6 0 44 34 85
75 41 41 78 75 82 75 4 0 28 19 52 42 24 24 40 36 36 28 -5 -8 3 -3 18 13 15
15 31 27 36 27 6 0 10 6 10 14 0 12 19 26 35 25 3 0 13 7 21 16 9 8 21 12 27
8 7 -3 9 -3 5 2 -8 9 57 59 90 69 12 4 22 12 22 17 0 6 5 7 10 4 6 -3 10 -1
10 5 0 6 4 9 9 6 5 -3 12 1 15 9 3 8 9 14 13 13 4 0 21 4 36 10 16 7 34 12 41
12 6 0 17 5 24 12 7 7 12 8 12 3 0 -6 4 -4 8 3 5 7 35 15 68 18 32 2 77 8 99
13 59 12 160 10 213 -3z m-1818 -316 c0 -6 12 -10 28 -11 15 0 21 -3 14 -6
-10 -4 -8 -9 7 -20 15 -10 21 -24 20 -51 -1 -20 -3 -29 -6 -19 -2 9 -9 17 -15
17 -5 0 -7 7 -4 16 5 12 2 15 -10 10 -12 -4 -15 -2 -11 9 4 8 1 17 -5 21 -7 4
-8 3 -4 -4 4 -7 3 -12 -3 -12 -5 0 -13 5 -17 11 -4 8 -9 8 -17 0 -7 -7 -15 -7
-24 1 -10 8 -17 8 -25 0 -6 -6 -16 -8 -22 -6 -7 3 -26 -1 -42 -7 -16 -7 -31
-13 -34 -13 -10 -2 -75 -50 -78 -58 -2 -5 -8 -6 -13 -2 -5 3 -9 -2 -9 -10 0
-9 -2 -16 -4 -16 -2 0 -11 -3 -20 -6 -9 -3 -16 -1 -16 5 0 6 7 11 16 11 12 0
11 5 -7 20 -21 17 -22 21 -9 30 8 5 23 10 33 10 9 0 17 5 17 10 0 6 6 10 13
10 7 0 23 9 35 20 12 11 25 20 29 19 4 -1 19 -1 33 0 19 1 21 4 11 10 -11 7
-9 10 10 13 57 8 129 6 129 -2z m-485 -690 c3 -5 1 -10 -4 -10 -6 0 -11 5 -11
10 0 6 2 10 4 10 3 0 8 -4 11 -10z m200 -200 c3 -5 2 -10 -4 -10 -5 0 -13 5
-16 10 -3 6 -2 10 4 10 5 0 13 -4 16 -10z"/>
<path d="M1896 2941 c-3 -5 1 -11 9 -14 9 -4 12 -1 8 9 -6 16 -10 17 -17 5z"/>
<path d="M5501 2774 c0 -11 3 -14 6 -6 3 7 2 16 -1 19 -3 4 -6 -2 -5 -13z"/>
<path d="M4840 2380 c0 -5 5 -10 11 -10 5 0 7 5 4 10 -3 6 -8 10 -11 10 -2 0
-4 -4 -4 -10z"/>
<path d="M440 2045 c7 -8 17 -15 22 -15 5 0 3 7 -6 15 -8 8 -18 15 -22 15 -3
0 -1 -7 6 -15z"/>
<path d="M935 2889 c-4 -6 -5 -12 -2 -15 2 -3 7 2 10 11 7 17 1 20 -8 4z"/>
</g>
</svg>
